<svg width="68" height="58" viewBox="0 0 68 58" fill="none" xmlns="http://www.w3.org/2000/svg">
<g id="Group 14331">
<g id="Vector" filter="url(#filter0_diii_708_34)">
<path d="M65.9999 29.7979V31.9299C65.6972 37.5208 63.6672 41.6527 60.764 44.7052C58.4505 47.1372 55.5828 48.8836 52.5929 50.1358C48.4353 51.8763 44.0408 52.6623 40.5677 53.0073C39.3429 53.1292 38.2328 53.1965 37.2884 53.2304H30.4725C29.5807 53.1965 28.5542 53.1351 27.4323 53.0295C23.9555 52.7008 19.5602 51.9457 15.407 50.2599C12.4127 49.0439 9.54346 47.3448 7.23521 44.9734C4.23943 41.895 2.18798 37.6848 2.03034 31.9299C2.03034 31.9299 2 31.5694 2 30.9348C2 28.4201 2.47882 21.6066 7.23521 15.9603C7.24557 15.9485 7.25519 15.9359 7.26555 15.9241C7.26555 15.9241 7.67776 11.5145 9.18379 7.44982C10.4101 4.13873 12.3616 1.0559 15.407 0.774439C15.4166 0.772962 15.427 0.772223 15.4373 0.771484H15.9406C17.5228 0.83354 22.5812 1.55678 27.4323 7.44982H40.5677C45.1708 1.42676 50.6725 0.820242 52.1896 0.771484H52.5929C55.5362 1.03448 57.4848 4.12691 58.7384 7.44982C60.2711 11.5145 60.764 15.9241 60.764 15.9241C64.9513 20.8708 65.843 26.7239 65.9999 29.7979Z" fill="white"/>
</g>
<g id="Ellipse 1850" filter="url(#filter1_di_708_34)">
<path d="M28.1971 25.0066C28.1971 27.6929 27.307 29.8706 25.6371 29.8706C23.9673 29.8706 23.0771 27.6929 23.0771 25.0066C23.0771 22.3203 23.9673 20.1426 25.6371 20.1426C27.307 20.1426 28.1971 22.3203 28.1971 25.0066Z" fill="#444447"/>
</g>
<g id="Ellipse 1851" filter="url(#filter2_di_708_34)">
<path d="M44.7523 25.0066C44.7523 27.6929 43.8622 29.8706 42.1923 29.8706C40.5225 29.8706 39.6323 27.6929 39.6323 25.0066C39.6323 22.3203 40.5225 20.1426 42.1923 20.1426C43.8622 20.1426 44.7523 22.3203 44.7523 25.0066Z" fill="#444447"/>
</g>
</g>
<defs>
<filter id="filter0_diii_708_34" x="0" y="-9.22852" width="68" height="66.459" filterUnits="userSpaceOnUse" color-interpolation-filters="sRGB">
<feFlood flood-opacity="0" result="BackgroundImageFix"/>
<feColorMatrix in="SourceAlpha" type="matrix" values="0 0 0 0 0 0 0 0 0 0 0 0 0 0 0 0 0 0 127 0" result="hardAlpha"/>
<feOffset dy="2"/>
<feGaussianBlur stdDeviation="1"/>
<feComposite in2="hardAlpha" operator="out"/>
<feColorMatrix type="matrix" values="0 0 0 0 0 0 0 0 0 0 0 0 0 0 0 0 0 0 0.25 0"/>
<feBlend mode="normal" in2="BackgroundImageFix" result="effect1_dropShadow_708_34"/>
<feBlend mode="normal" in="SourceGraphic" in2="effect1_dropShadow_708_34" result="shape"/>
<feColorMatrix in="SourceAlpha" type="matrix" values="0 0 0 0 0 0 0 0 0 0 0 0 0 0 0 0 0 0 127 0" result="hardAlpha"/>
<feOffset dy="-10"/>
<feGaussianBlur stdDeviation="7"/>
<feComposite in2="hardAlpha" operator="arithmetic" k2="-1" k3="1"/>
<feColorMatrix type="matrix" values="0 0 0 0 0 0 0 0 0 0 0 0 0 0 0 0 0 0 0.1 0"/>
<feBlend mode="normal" in2="shape" result="effect2_innerShadow_708_34"/>
<feColorMatrix in="SourceAlpha" type="matrix" values="0 0 0 0 0 0 0 0 0 0 0 0 0 0 0 0 0 0 127 0" result="hardAlpha"/>
<feOffset dy="4"/>
<feGaussianBlur stdDeviation="1"/>
<feComposite in2="hardAlpha" operator="arithmetic" k2="-1" k3="1"/>
<feColorMatrix type="matrix" values="0 0 0 0 0 0 0 0 0 0 0 0 0 0 0 0 0 0 0.02 0"/>
<feBlend mode="normal" in2="effect2_innerShadow_708_34" result="effect3_innerShadow_708_34"/>
<feColorMatrix in="SourceAlpha" type="matrix" values="0 0 0 0 0 0 0 0 0 0 0 0 0 0 0 0 0 0 127 0" result="hardAlpha"/>
<feOffset dy="4"/>
<feGaussianBlur stdDeviation="7"/>
<feComposite in2="hardAlpha" operator="arithmetic" k2="-1" k3="1"/>
<feColorMatrix type="matrix" values="0 0 0 0 0 0 0 0 0 0 0 0 0 0 0 0 0 0 0.04 0"/>
<feBlend mode="normal" in2="effect3_innerShadow_708_34" result="effect4_innerShadow_708_34"/>
</filter>
<filter id="filter1_di_708_34" x="22.0771" y="16.1426" width="7.12012" height="15.7285" filterUnits="userSpaceOnUse" color-interpolation-filters="sRGB">
<feFlood flood-opacity="0" result="BackgroundImageFix"/>
<feColorMatrix in="SourceAlpha" type="matrix" values="0 0 0 0 0 0 0 0 0 0 0 0 0 0 0 0 0 0 127 0" result="hardAlpha"/>
<feOffset dy="1"/>
<feGaussianBlur stdDeviation="0.5"/>
<feComposite in2="hardAlpha" operator="out"/>
<feColorMatrix type="matrix" values="0 0 0 0 0 0 0 0 0 0 0 0 0 0 0 0 0 0 0.3 0"/>
<feBlend mode="normal" in2="BackgroundImageFix" result="effect1_dropShadow_708_34"/>
<feBlend mode="normal" in="SourceGraphic" in2="effect1_dropShadow_708_34" result="shape"/>
<feColorMatrix in="SourceAlpha" type="matrix" values="0 0 0 0 0 0 0 0 0 0 0 0 0 0 0 0 0 0 127 0" result="hardAlpha"/>
<feOffset dy="-4"/>
<feGaussianBlur stdDeviation="2"/>
<feComposite in2="hardAlpha" operator="arithmetic" k2="-1" k3="1"/>
<feColorMatrix type="matrix" values="0 0 0 0 0.447059 0 0 0 0 0.654902 0 0 0 0 0.964706 0 0 0 0.4 0"/>
<feBlend mode="normal" in2="shape" result="effect2_innerShadow_708_34"/>
</filter>
<filter id="filter2_di_708_34" x="38.6323" y="16.1426" width="7.12012" height="15.7285" filterUnits="userSpaceOnUse" color-interpolation-filters="sRGB">
<feFlood flood-opacity="0" result="BackgroundImageFix"/>
<feColorMatrix in="SourceAlpha" type="matrix" values="0 0 0 0 0 0 0 0 0 0 0 0 0 0 0 0 0 0 127 0" result="hardAlpha"/>
<feOffset dy="1"/>
<feGaussianBlur stdDeviation="0.5"/>
<feComposite in2="hardAlpha" operator="out"/>
<feColorMatrix type="matrix" values="0 0 0 0 0 0 0 0 0 0 0 0 0 0 0 0 0 0 0.3 0"/>
<feBlend mode="normal" in2="BackgroundImageFix" result="effect1_dropShadow_708_34"/>
<feBlend mode="normal" in="SourceGraphic" in2="effect1_dropShadow_708_34" result="shape"/>
<feColorMatrix in="SourceAlpha" type="matrix" values="0 0 0 0 0 0 0 0 0 0 0 0 0 0 0 0 0 0 127 0" result="hardAlpha"/>
<feOffset dy="-4"/>
<feGaussianBlur stdDeviation="2"/>
<feComposite in2="hardAlpha" operator="arithmetic" k2="-1" k3="1"/>
<feColorMatrix type="matrix" values="0 0 0 0 0.447059 0 0 0 0 0.654902 0 0 0 0 0.964706 0 0 0 0.4 0"/>
<feBlend mode="normal" in2="shape" result="effect2_innerShadow_708_34"/>
</filter>
</defs>
</svg>
